# xmcd
#
# Track frame offsets:
#	150
#	16363
#	34259
#	50976
#	64772
#	76126
#	92970
#	115462
#	138131
#	153362
#	165789
#
# Disc length: 2437 seconds
#
# Revision: 0
# Processed by: cddbd v1.5PL3 Copyright (c) Steve Scherf et al.
# Submitted via: dBpowerAMP V4.0
#
DISCID=8809830b
DTITLE=Korby Lenker - Bellingham
DYEAR=1900
DGENRE=Country
TTITLE0=Full moon to rise
TTITLE1=Papercuts
TTITLE2=Traded my diamond
TTITLE3=Shed a little light
TTITLE4=Live love lose
TTITLE5=Some hallelujah
TTITLE6=Old Shanandore
TTITLE7=Punkin brown
TTITLE8=Angels rejoiced last night
TTITLE9=Right this time
TTITLE10=Never's even longer
EXTD=
EXTT0=
EXTT1=
EXTT2=
EXTT3=
EXTT4=
EXTT5=
EXTT6=
EXTT7=
EXTT8=
EXTT9=
EXTT10=
PLAYORDER=
